<?xml version="1.0" standalone="no"?>
<!DOCTYPE svg PUBLIC "-//W3C//DTD SVG 20010904//EN"
 "http://www.w3.org/TR/2001/REC-SVG-20010904/DTD/svg10.dtd">
<svg version="1.0" xmlns="http://www.w3.org/2000/svg"
 width="626.000000pt" height="626.000000pt" viewBox="0 0 626.000000 626.000000"
 preserveAspectRatio="xMidYMid meet">

<g transform="translate(0.000000,626.000000) scale(0.100000,-0.100000)"
fill="#000000" stroke="none">
<path d="M3258 5508 c-21 -12 -40 -30 -44 -40 -3 -10 -21 -25 -39 -32 -18 -8
-41 -26 -51 -41 -15 -24 -16 -36 -5 -122 13 -108 15 -113 41 -113 19 0 24 -11
32 -65 7 -43 42 60 48 143 12 152 65 166 273 72 27 -12 69 -22 93 -22 51 0 99
26 90 48 -3 9 1 22 9 30 22 23 18 53 -8 65 -18 8 -23 17 -19 35 3 18 -2 26
-22 35 -21 10 -37 9 -84 -5 -58 -18 -58 -18 -141 8 -99 31 -125 32 -173 4z"/>
<path d="M3324 5275 c-18 -13 -15 -14 29 -15 49 0 63 13 25 24 -31 8 -32 8
-54 -9z"/>
<path d="M3533 5273 c-26 -10 -12 -23 25 -23 35 1 36 2 18 15 -21 16 -24 16
-43 8z"/>
<path d="M3538 5213 c-30 -8 -20 -18 17 -18 37 0 46 9 19 19 -9 3 -16 5 -17 5
-1 -1 -10 -3 -19 -6z"/>
<path d="M3326 5202 c-2 -4 13 -7 34 -7 21 0 36 3 34 7 -3 5 -18 8 -34 8 -16
0 -31 -3 -34 -8z"/>
<path d="M3460 5198 c0 -3 11 -36 25 -72 30 -79 29 -73 8 -79 -14 -4 -12 -5 5
-6 28 -1 29 20 0 90 -19 49 -38 82 -38 67z"/>
<path d="M3344 5179 c-10 -17 13 -36 27 -22 12 12 4 33 -11 33 -5 0 -12 -5
-16 -11z"/>
<path d="M3535 5181 c-8 -15 3 -31 21 -31 9 0 14 7 12 17 -4 20 -24 28 -33 14z"/>
<path d="M3653 5142 c-13 -2 -23 -8 -23 -14 0 -5 6 -8 13 -5 24 9 38 -9 44
-52 3 -23 10 -44 16 -48 7 -4 8 5 4 27 -4 18 -7 40 -7 49 0 27 -23 47 -47 43z"/>
<path d="M3407 5023 c-10 -16 22 -53 46 -53 21 1 21 1 -2 14 -14 8 -28 22 -31
32 -4 10 -9 13 -13 7z"/>
<path d="M3716 4882 l6 -48 -72 -18 c-61 -16 -73 -17 -81 -5 -6 10 -9 4 -9
-18 0 -26 4 -33 20 -33 23 0 160 37 168 45 3 3 0 22 -6 44 -7 21 -12 48 -12
60 0 11 -5 21 -10 21 -7 0 -8 -17 -4 -48z"/>
<path d="M3890 4832 c0 -7 -4 -11 -9 -7 -5 3 -12 1 -15 -4 -4 -5 -35 -26 -71
-46 l-64 -36 29 -48 c17 -26 30 -51 30 -55 0 -4 18 -39 41 -78 22 -38 39 -72
36 -75 -6 -5 -80 40 -117 72 -14 12 -50 30 -80 39 -30 10 -70 26 -88 37 -31
18 -33 18 -28 2 13 -45 112 -468 141 -598 16 -75 65 -557 66 -652 0 -32 5 -93
10 -137 14 -107 4 -108 -12 -1 l-12 87 -31 -6 c-134 -23 -407 -57 -437 -54
-21 2 -35 0 -33 -4 5 -8 -61 -12 -186 -10 -55 1 -78 6 -86 17 -16 22 -2 89 52
235 61 166 117 359 109 379 -3 8 -3 12 1 8 10 -10 84 249 84 294 0 39 -58 418
-66 431 -3 5 -9 6 -13 4 -4 -3 -8 1 -8 9 0 11 4 12 13 4 10 -8 12 -3 7 28 -3
21 -7 40 -9 42 -1 2 -27 -10 -56 -27 -29 -16 -107 -51 -173 -76 -203 -79 -194
-74 -225 -136 -39 -77 -129 -293 -178 -426 -23 -62 -62 -155 -87 -208 -25 -53
-43 -102 -39 -108 4 -6 3 -8 -4 -5 -12 8 -42 -73 -42 -115 0 -38 30 -109 43
-101 6 4 7 1 2 -7 -4 -7 -4 -15 1 -19 5 -3 17 -19 26 -36 10 -16 22 -29 28
-27 7 1 9 -2 5 -8 -4 -6 6 -27 22 -48 16 -20 50 -70 77 -109 27 -40 51 -73 53
-73 2 0 1 5 -3 12 -4 7 -3 8 5 4 6 -4 9 -11 6 -16 -3 -5 21 -45 53 -89 48 -65
61 -78 72 -68 10 8 10 6 0 -7 -12 -15 -12 -20 -2 -23 15 -6 15 -17 2 -65 l-11
-37 -367 -1 c-203 0 -371 2 -374 6 -8 8 12 54 24 54 4 0 8 7 8 15 0 9 -10 15
-26 15 -26 0 -26 0 -20 68 4 37 9 95 12 130 5 53 8 62 25 62 16 0 19 7 19 50
l0 50 -230 0 -230 0 0 -50 c0 -37 4 -50 14 -50 23 0 25 -10 32 -126 3 -60 7
-115 9 -121 3 -8 -5 -13 -20 -13 -16 0 -25 -6 -25 -15 0 -8 4 -15 8 -15 5 0
14 -11 20 -25 10 -21 9 -27 -2 -31 -8 -3 -118 -4 -245 -2 l-231 3 0 -97 0 -98
295 0 295 0 0 -835 c0 -459 -1 -835 -2 -836 -2 0 -37 -3 -77 -5 -41 -3 -76 -6
-77 -7 -1 -1 -16 -141 -33 -312 -17 -170 -34 -325 -37 -342 l-5 -33 548 0 548
0 -2 183 c-1 100 -2 257 -3 349 l0 168 -380 -3 -380 -2 0 838 0 837 430 0
c454 0 439 2 421 -45 -16 -40 92 -192 164 -230 l37 -20 -6 -95 c-6 -103 -23
-426 -65 -1264 -25 -513 -26 -539 -9 -544 15 -4 18 -17 20 -76 0 -39 1 -77 1
-83 -1 -10 59 -13 264 -13 232 0 264 2 253 15 -16 20 -79 54 -175 94 -96 41
-100 44 -83 62 9 9 67 342 162 924 81 501 149 918 152 928 3 10 15 17 29 17
26 0 24 9 49 -155 15 -101 26 3 -98 -1025 -36 -300 -66 -556 -66 -568 0 -15 6
-22 19 -22 47 0 48 -5 32 -95 -8 -47 -12 -88 -8 -91 9 -10 448 -92 496 -93
l25 -1 -30 31 c-16 17 -73 60 -126 97 -54 36 -98 70 -98 76 1 27 18 38 49 31
22 -5 33 -3 36 7 3 7 65 312 139 678 l134 665 -34 220 c-18 121 -33 226 -34
233 0 9 102 12 476 12 l476 0 -4 -1020 -4 -1020 50 0 51 0 0 1182 0 1183 353
3 352 2 0 98 0 97 -342 -3 c-188 -1 -345 1 -349 5 -4 5 32 159 82 343 49 184
89 341 89 348 0 9 -84 12 -388 12 l-388 0 -48 -197 c-27 -109 -63 -256 -80
-328 l-32 -130 -133 -3 c-141 -3 -161 2 -154 41 5 23 -10 161 -52 512 -29 232
-55 513 -55 589 0 39 3 46 13 37 8 -6 22 -12 33 -14 10 -2 26 -7 34 -10 41
-18 173 -57 191 -57 33 0 82 26 122 64 34 33 53 77 25 60 -7 -4 -8 -3 -4 5 4
6 12 8 18 5 7 -4 8 11 3 47 -6 51 -34 122 -69 179 -30 48 -179 306 -209 360
-34 63 -57 92 -57 72z m-1030 -1102 c-17 -252 -31 -361 -48 -360 -4 1 -31 50
-61 109 l-55 108 22 49 c65 151 146 307 150 289 2 -10 -1 -98 -8 -195z m-156
-76 c3 -8 2 -12 -4 -9 -6 3 -10 10 -10 16 0 14 7 11 14 -7z m-878 -506 l29
-33 -32 29 c-29 26 -34 27 -50 15 -16 -13 -17 -12 -4 4 18 23 23 22 57 -15z
m74 28 c0 -2 -8 -10 -17 -17 -16 -13 -17 -12 -4 4 13 16 21 21 21 13z m1057
-46 c45 -24 72 -25 120 -5 20 8 39 13 42 10 13 -13 -19 -41 -62 -55 -51 -16
-58 -31 -26 -53 l20 -15 -19 -38 c-34 -65 -89 -122 -116 -120 -13 0 -22 4 -20
8 3 4 -22 35 -56 68 -33 34 -60 66 -60 72 0 9 128 148 137 148 2 0 20 -9 40
-20z m-1197 6 c0 -2 -8 -10 -17 -17 -16 -13 -17 -12 -4 4 13 16 21 21 21 13z
m1090 -19 c0 -2 -9 -12 -19 -21 -14 -13 -21 -14 -27 -5 -4 7 -3 10 3 6 6 -4
16 0 23 8 12 14 20 19 20 12z"/>
<path d="M3405 4590 c-1 -3 -6 -20 -10 -39 -5 -23 -4 -31 4 -27 6 4 11 2 11
-4 0 -7 7 -9 18 -5 13 5 14 4 5 -6 -10 -10 -10 -16 1 -28 12 -13 15 -100 18
-499 l3 -482 27 -23 c15 -12 45 -37 67 -55 l40 -32 15 28 c8 16 23 51 34 79
l19 50 -37 202 c-20 111 -39 198 -43 194 -5 -4 -5 0 -2 9 4 9 -3 65 -14 125
-54 278 -71 390 -65 415 3 16 9 26 14 23 5 -3 11 -1 15 5 3 5 2 10 -4 10 -6 0
-19 15 -28 33 -15 26 -24 32 -51 32 -19 0 -35 -2 -37 -5z"/>
<path d="M3265 4565 c22 -18 86 -53 70 -38 -5 6 -28 20 -50 32 -22 13 -31 15
-20 6z"/>
<path d="M3358 4508 c5 -5 16 -8 23 -6 8 3 3 7 -10 11 -17 4 -21 3 -13 -5z"/>
<path d="M1838 4313 c-32 -39 -65 -141 -74 -229 -7 -65 6 -125 34 -157 14 -15
13 -33 -2 -173 -9 -86 -15 -158 -12 -161 2 -2 7 26 11 64 25 237 29 257 55
263 14 4 24 12 22 19 -1 7 2 10 7 7 16 -10 29 17 57 113 33 117 31 206 -6 246
-28 29 -70 33 -92 8z"/>
<path d="M1421 4194 c-18 -13 -22 -23 -18 -48 4 -28 73 -156 84 -156 2 0 1 5
-3 12 -4 7 -3 8 5 4 6 -4 9 -12 5 -17 -3 -5 20 -35 51 -65 l57 -56 53 4 c45 4
55 2 62 -14 13 -29 14 132 1 167 -13 36 -68 96 -80 89 -5 -3 -7 0 -6 7 4 17
-100 77 -147 84 -29 5 -46 2 -64 -11z"/>
<path d="M1731 3825 c1 -19 18 -51 18 -35 0 8 -4 22 -9 30 -5 8 -9 11 -9 5z"/>
<path d="M1905 3740 c-35 -14 -63 -54 -67 -95 -3 -22 -8 -49 -12 -60 -7 -18
-6 -18 4 -3 8 13 19 16 40 12 22 -5 35 0 56 20 27 24 56 32 144 38 32 3 35 6
35 33 0 20 -5 29 -13 27 -8 -1 -11 2 -7 8 15 25 -130 41 -180 20z"/>
<path d="M1782 3560 c0 -14 2 -19 5 -12 2 6 2 18 0 25 -3 6 -5 1 -5 -13z"/>
<path d="M1786 3485 c-3 -9 -6 -31 -5 -48 1 -28 2 -26 10 12 9 46 6 65 -5 36z"/>
<path d="M3230 3341 c0 -6 4 -13 10 -16 6 -3 7 1 4 9 -7 18 -14 21 -14 7z"/>
<path d="M3250 3306 c0 -2 8 -10 18 -17 15 -13 16 -12 3 4 -13 16 -21 21 -21
13z"/>
<path d="M3207 3289 c7 -7 15 -10 18 -7 3 3 -2 9 -12 12 -14 6 -15 5 -6 -5z"/>
<path d="M2048 1173 c7 -3 16 -2 19 1 4 3 -2 6 -13 5 -11 0 -14 -3 -6 -6z"/>
<path d="M2118 1163 c7 -3 16 -2 19 1 4 3 -2 6 -13 5 -11 0 -14 -3 -6 -6z"/>
</g>
</svg>
