<?xml version="1.0" standalone="no"?>
<!DOCTYPE svg PUBLIC "-//W3C//DTD SVG 20010904//EN"
 "http://www.w3.org/TR/2001/REC-SVG-20010904/DTD/svg10.dtd">
<svg version="1.0" xmlns="http://www.w3.org/2000/svg"
 width="3000.000000pt" height="1667.000000pt" viewBox="0 0 3000.000000 1667.000000"
 preserveAspectRatio="xMidYMid meet">

<g transform="translate(0.000000,1667.000000) scale(0.100000,-0.100000)"
fill="#000000" stroke="none">
<path d="M19601 13952 c-16 -30 -111 -264 -111 -273 0 -14 47 -11 53 4 50 117
107 264 107 274 0 20 -38 16 -49 -5z"/>
<path d="M19293 13837 c-63 -28 -73 -35 -73 -58 0 -23 9 -30 71 -58 85 -37 89
-37 89 -8 0 17 -11 26 -51 43 l-51 21 51 22 c42 18 51 26 51 46 0 30 2 30 -87
-8z"/>
<path d="M19770 13844 c0 -20 9 -29 48 -46 l47 -21 -47 -20 c-38 -16 -48 -26
-48 -44 0 -29 3 -29 89 8 60 27 71 36 71 56 0 20 -11 29 -57 50 -105 46 -103
46 -103 17z"/>
<path d="M19040 13185 l0 -375 -3525 0 -3524 0 -3 -347 -3 -348 -27 -56 c-32
-66 -81 -112 -154 -146 l-52 -23 -858 2 -859 3 -42 23 c-60 31 -106 81 -139
149 l-29 58 -3 343 -3 342 -268 0 c-287 0 -364 -8 -497 -54 -223 -76 -427
-233 -560 -432 -69 -103 -114 -205 -152 -343 l-27 -96 -3 -1542 -3 -1542 498
-3 c492 -3 499 -3 543 -25 68 -34 112 -75 145 -134 l30 -54 0 -685 0 -685 -27
-47 c-39 -66 -84 -107 -148 -137 l-55 -25 -493 3 -493 2 4 -968 c4 -1077 0
-1022 74 -1207 86 -216 226 -391 416 -516 102 -68 200 -111 336 -149 l96 -26
1709 -3 c1526 -2 1711 -1 1732 13 30 19 30 26 4 -175 -23 -181 -24 -194 -6
-160 8 14 19 97 26 189 11 128 17 168 30 181 60 60 353 214 530 280 63 23 142
53 175 67 253 106 430 159 569 170 l79 6 -6 344 -6 343 -55 64 c-30 35 -82
105 -115 155 l-62 91 -164 0 -165 0 0 75 0 75 128 0 127 0 30 -41 c56 -77 232
-236 340 -308 177 -118 356 -197 554 -242 128 -30 405 -37 542 -14 328 54 616
211 917 500 l110 105 1226 0 c674 0 1226 2 1226 5 0 5 -203 383 -227 423 l-13
22 -989 0 -989 0 24 63 c32 84 139 392 236 679 44 131 84 236 88 233 14 -9 40
-98 47 -157 l6 -58 1242 0 1241 0 49 121 c69 176 120 233 189 215 85 -21 109
-111 80 -295 l-7 -41 92 0 91 0 0 -80 0 -79 -116 -3 -116 -3 -33 -90 c-17 -49
-39 -107 -48 -127 l-16 -38 27 0 c44 0 182 -37 258 -68 92 -38 177 -92 237
-150 l47 -46 0 295 c0 338 3 357 76 438 26 29 69 62 102 78 l57 28 628 3 627
3 0 494 0 495 605 0 606 0 24 25 25 24 0 2646 0 2645 -1910 0 -1910 0 0 -375z
m3660 65 l0 -50 -855 0 -855 0 0 50 0 50 855 0 855 0 0 -50z m-1730 0 l0 -40
-895 0 -895 0 0 40 0 40 895 0 895 0 0 -40z m1720 -430 l0 -40 -1755 0 -1755
0 0 40 0 40 1755 0 1755 0 0 -40z m-1720 -430 l0 -40 -895 0 -895 0 0 40 0 40
895 0 895 0 0 -40z m1730 -430 l0 -50 -1760 0 -1760 0 0 50 0 50 1760 0 1760
0 0 -50z m0 -430 l0 -50 -855 0 -855 0 0 50 0 50 855 0 855 0 0 -50z m-1730 0
l0 -40 -895 0 -895 0 0 40 0 40 895 0 895 0 0 -40z m-9290 -310 l0 -80 -775 0
-775 0 0 80 0 80 775 0 775 0 0 -80z m1560 0 l0 -80 -770 0 -770 0 0 80 0 80
770 0 770 0 0 -80z m5800 0 l0 -80 -2765 0 -2765 0 0 73 c0 41 3 77 7 80 3 4
1248 7 2765 7 l2758 0 0 -80z m3660 -120 l0 -50 -865 0 -865 0 0 50 0 50 865
0 865 0 0 -50z m-1750 0 l0 -40 -885 0 -885 0 0 40 0 40 885 0 885 0 0 -40z
m1750 -430 l0 -50 -865 0 -865 0 0 50 0 50 865 0 865 0 0 -50z m-1750 0 l0
-40 -885 0 -885 0 0 40 0 40 885 0 885 0 0 -40z m-7710 -55 l0 -75 -1555 0
-1555 0 0 75 0 75 1555 0 1555 0 0 -75z m5800 0 l0 -75 -2765 0 -2765 0 0 75
0 75 2765 0 2765 0 0 -75z m3650 -375 l0 -40 -1755 0 -1755 0 0 40 0 40 1755
0 1755 0 0 -40z m-9452 -227 l-3 -78 -1552 -3 -1553 -2 0 80 0 80 1555 0 1556
0 -3 -77z m5802 -3 l0 -80 -2762 2 -2763 3 -3 78 -3 77 2766 0 2765 0 0 -80z
m3650 -200 l0 -40 -1755 0 -1755 0 0 40 0 40 1755 0 1755 0 0 -40z m-10300
-400 l0 -80 -1130 0 -1130 0 0 80 0 80 1130 0 1130 0 0 -80z m850 -5 l0 -85
-410 0 -410 0 0 85 0 85 410 0 410 0 0 -85z m5800 5 l0 -80 -1435 0 c-932 0
-1435 3 -1435 10 0 5 -30 41 -66 80 l-66 70 1501 0 1501 0 0 -80z m3660 -30
l0 -50 -1300 0 -1300 0 0 43 c0 24 3 47 7 50 3 4 588 7 1300 7 l1293 0 0 -50z
m-2640 0 l0 -40 -440 0 -440 0 0 40 0 40 440 0 440 0 0 -40z m2630 -430 l0
-40 -1755 0 -1755 0 0 40 0 40 1755 0 1755 0 0 -40z m-9720 -145 l0 -75 -1420
0 -1420 0 0 75 0 75 1420 0 1420 0 0 -75z m6070 0 l0 -75 -1038 0 -1038 0 -70
35 c-76 39 -198 79 -302 100 -57 11 111 13 1191 14 l1257 1 0 -75z m3650 -290
l0 -45 -1755 0 -1755 0 0 45 0 45 1755 0 1755 0 0 -45z m-11010 -315 l0 -80
-775 0 -775 0 0 80 0 80 775 0 775 0 0 -80z m1389 23 c7 -32 15 -68 18 -80 l5
-23 -696 0 -696 0 0 80 0 80 678 0 679 0 12 -57z m5991 27 l28 -30 391 0 391
0 0 -50 0 -50 -1391 0 -1391 0 5 29 c3 15 9 51 13 80 l7 51 959 0 960 0 28
-30z m-5857 -647 c9 -38 17 -71 17 -75 0 -5 -695 -8 -1545 -8 l-1545 0 0 75 0
75 1528 0 1528 0 17 -67z m6667 -8 l0 -75 -1475 0 c-811 0 -1475 3 -1475 6 0
3 9 37 21 75 l21 69 1454 0 1454 0 0 -75z m-6506 -570 c47 -171 112 -401 144
-512 l59 -203 -29 0 c-27 0 -28 2 -28 45 0 34 -4 45 -15 45 -32 0 -98 43 -155
100 -81 84 -149 224 -184 383 l-6 27 -1510 0 -1510 0 0 80 0 80 1509 0 1508 0
6 52 c8 64 58 170 94 198 14 11 27 19 29 17 1 -1 41 -142 88 -312z m-2724
-635 l0 -80 -255 0 -255 0 0 80 0 80 255 0 255 0 0 -80z m2600 -5 l0 -85
-1290 0 -1290 0 0 85 0 85 1290 0 1290 0 0 -85z m0 -600 l0 -75 -1555 0 -1555
0 0 75 0 75 1555 0 1555 0 0 -75z"/>
<path d="M16855 6823 c-38 -123 -90 -216 -161 -290 l-62 -63 889 0 889 0 0 23
c0 66 96 137 186 137 68 -1 124 -29 198 -100 l63 -60 134 0 134 0 47 113 c26
61 67 160 92 220 l45 107 -1213 0 -1214 0 -27 -87z"/>
<path d="M19000 6302 c0 -5 8 -17 19 -26 17 -15 19 -15 25 -1 10 28 7 35 -19
35 -14 0 -25 -4 -25 -8z"/>
<path d="M16099 5619 c-33 -50 -85 -119 -115 -155 -30 -35 -54 -66 -54 -69 0
-3 277 -5 615 -5 603 0 615 0 672 -21 65 -25 137 -91 168 -154 19 -38 20 -66
23 -558 l3 -517 535 2 536 3 143 510 c205 732 235 846 235 882 0 18 -14 64
-31 103 l-32 70 -1318 0 -1318 0 -62 -91z"/>
<path d="M20071 5605 c-40 -107 -95 -213 -160 -309 -54 -81 -47 -61 -221 -666
-72 -250 -133 -463 -136 -473 -5 -17 18 -18 563 -15 l568 4 98 26 c181 50 347
142 478 266 144 136 249 308 304 502 24 82 28 118 32 272 l5 177 -628 3 c-621
3 -630 3 -676 25 -96 44 -169 136 -186 234 l-7 42 -34 -88z"/>
<path d="M17109 4266 c-2 -3 -1 -64 3 -137 5 -102 11 -136 23 -148 15 -15 16
-12 11 34 -4 28 -11 95 -16 149 -10 99 -13 110 -21 102z"/>
<path d="M9763 3065 c-167 -45 -309 -180 -367 -348 -21 -61 -21 -76 -21 -697
0 -588 1 -639 18 -695 52 -168 172 -293 341 -354 71 -25 72 -25 460 -29 349
-3 388 -2 383 12 -3 8 -37 62 -75 118 -147 219 -284 484 -345 668 -42 124 -87
347 -87 425 0 115 52 210 191 346 233 231 566 374 732 315 74 -27 94 -57 132
-202 26 -98 156 -497 160 -492 2 2 29 66 60 143 104 254 247 549 365 753 l30
52 -962 -1 c-796 0 -972 -3 -1015 -14z"/>
<path d="M19031 2342 l-213 -738 31 -107 c63 -216 123 -481 118 -520 l-5 -38
616 3 617 3 71 26 c166 61 275 170 336 339 l23 65 0 635 c0 627 0 636 -22 705
-54 170 -195 305 -368 350 -49 12 -139 15 -525 15 l-466 0 -213 -738z"/>
<path d="M12407 2012 c-58 -375 -219 -1228 -253 -1343 -4 -14 15 -20 111 -39
64 -13 117 -21 120 -19 2 3 11 223 20 489 9 267 22 636 30 820 7 184 13 336
12 337 -1 1 -19 -110 -40 -245z"/>
<path d="M17406 1459 c-9 -610 1 -849 38 -849 29 1 205 36 211 42 3 3 -19 124
-49 269 -54 260 -138 714 -174 939 l-18 115 -8 -516z"/>
</g>
</svg>
