<?xml version="1.0" standalone="no"?>
<!DOCTYPE svg PUBLIC "-//W3C//DTD SVG 20010904//EN"
 "http://www.w3.org/TR/2001/REC-SVG-20010904/DTD/svg10.dtd">
<svg version="1.0" xmlns="http://www.w3.org/2000/svg"
 width="736.000000pt" height="736.000000pt" viewBox="0 0 736.000000 736.000000"
 preserveAspectRatio="xMidYMid meet">

<g transform="translate(0.000000,736.000000) scale(0.100000,-0.100000)"
fill="#000000" stroke="none">
<path d="M2095 6030 l-560 -5 -37 -23 c-20 -13 -46 -38 -57 -56 -12 -18 -34
-50 -51 -71 -21 -27 -28 -44 -24 -59 3 -12 132 -345 286 -741 225 -580 286
-725 309 -747 l29 -28 578 0 578 0 12 -62 c27 -147 134 -285 272 -350 41 -20
83 -39 93 -42 9 -3 17 -13 17 -21 0 -13 -5 -14 -22 -8 -13 4 -105 8 -205 8
-225 0 -222 2 -230 -127 -9 -142 21 -188 124 -188 38 0 39 -1 67 -65 15 -36
31 -65 35 -65 3 0 24 29 46 65 37 62 41 65 78 65 99 0 132 46 124 170 -4 65
-4 69 13 60 10 -6 42 -10 70 -10 l52 0 31 -70 c17 -38 33 -70 37 -70 3 0 25
32 49 70 l43 70 50 0 c51 0 88 13 88 31 0 6 -10 3 -22 -5 -13 -10 -44 -16 -74
-16 l-51 0 -41 -66 -40 -67 -31 67 -30 66 -55 0 c-86 0 -96 15 -96 143 0 144
-11 137 222 137 164 0 187 -2 200 -17 12 -14 17 -60 23 -218 7 -214 13 -237
61 -255 14 -6 43 -10 65 -10 39 0 40 -1 69 -66 17 -36 34 -63 39 -59 6 3 26
32 46 65 34 57 39 60 75 60 47 0 89 15 106 38 9 11 13 51 14 120 0 98 1 102
19 92 11 -5 41 -10 68 -10 l49 0 28 -65 c16 -36 32 -68 37 -70 4 -3 26 26 49
64 l41 69 57 4 c31 2 65 8 75 12 16 7 17 0 17 -91 0 -126 7 -136 90 -143 l61
-5 29 -65 c16 -35 32 -66 37 -67 4 -1 26 28 49 65 39 65 42 67 85 70 108 6
123 29 117 169 -6 139 -2 137 -229 141 -152 3 -184 1 -205 -13 l-24 -15 0 97
c-1 102 -7 120 -47 141 -29 16 -343 16 -376 1 -37 -17 -47 -50 -47 -154 l0
-93 -30 15 c-24 12 -64 14 -199 11 -149 -3 -171 -5 -190 -22 -21 -19 -21 -19
-21 1 0 16 10 23 46 32 179 45 332 208 367 389 l12 62 627 0 c346 0 628 -2
628 -4 0 -2 -11 -28 -24 -58 -56 -126 -62 -327 -14 -446 110 -269 354 -430
619 -408 260 22 464 182 549 431 15 44 22 52 60 66 24 9 55 26 68 38 22 20 24
26 18 79 -8 68 -38 102 -90 102 -31 0 -34 3 -41 38 -8 45 -78 196 -95 207 -15
9 -16 11 32 -85 21 -41 41 -94 44 -118 l7 -43 -43 3 c-43 3 -43 3 -56 56 -15
58 -33 97 -41 89 -3 -3 3 -36 12 -74 27 -108 7 -236 -51 -322 -52 -78 -55 -84
-19 -46 l37 40 -21 -42 c-37 -74 -126 -159 -208 -200 -67 -33 -85 -38 -167
-41 -110 -4 -184 16 -271 73 -91 61 -170 175 -189 275 l-7 35 16 -34 c24 -53
26 -33 3 34 -15 46 -19 79 -16 145 3 76 8 95 41 162 47 97 129 174 225 214 58
25 80 28 172 29 58 0 125 -3 150 -8 32 -5 39 -5 23 2 -51 23 -139 31 -218 21
-206 -26 -365 -171 -406 -369 -16 -76 -7 -213 19 -283 93 -258 391 -384 630
-267 75 36 173 129 217 203 28 47 33 50 118 61 l48 6 -7 -28 c-25 -109 -141
-266 -251 -339 -188 -124 -445 -129 -641 -12 -129 78 -242 232 -277 379 -75
318 126 642 450 724 127 32 309 8 422 -55 29 -17 53 -27 53 -23 0 15 -97 62
-170 82 -201 56 -420 6 -574 -130 -34 -30 -48 -38 -43 -24 5 11 127 326 272
701 146 374 265 688 265 697 0 27 -108 152 -154 178 l-41 24 -1735 0 c-954 1
-1987 -2 -2295 -5z m4064 -29 c20 -11 54 -40 75 -65 l37 -46 -2426 0 c-1938 0
-2425 3 -2419 13 23 41 60 80 92 97 36 19 75 19 2320 20 2236 0 2284 0 2321
-19z m122 -131 c12 -7 19 -21 19 -39 0 -16 -38 -127 -85 -248 -148 -377 -180
-459 -325 -833 -78 -201 -148 -377 -156 -391 -7 -15 -26 -31 -41 -37 -18 -6
-703 -9 -1865 -8 l-1838 1 -23 25 c-15 15 -86 186 -185 440 -88 228 -215 554
-281 724 -67 170 -121 316 -121 324 0 9 7 24 17 34 15 17 104 18 2440 18 1652
0 2430 -3 2444 -10z m-2081 -1669 c0 -38 -6 -56 -24 -78 l-24 -28 -350 0 -350
0 -26 24 c-22 20 -26 33 -26 78 l0 53 400 0 400 0 0 -49z m-816 -107 c3 -8 2
-12 -4 -9 -6 3 -10 10 -10 16 0 14 7 11 14 -7z m3546 -29 c20 -21 31 -109 16
-133 -13 -21 -59 -40 -138 -56 -86 -18 -118 -20 -118 -8 0 4 37 13 82 20 45 6
87 17 92 23 8 8 6 10 -9 6 -41 -12 -147 -28 -152 -24 -2 3 3 19 11 36 12 22
26 32 52 37 34 6 102 2 154 -10 16 -4 13 -1 -10 10 -25 11 -55 15 -108 12
l-74 -3 6 29 c3 15 6 39 6 52 0 28 17 33 103 31 52 -2 72 -7 87 -22z m-2037
-36 c13 -17 17 -40 17 -116 0 -86 -2 -96 -25 -118 -19 -20 -34 -25 -77 -25
l-53 0 -41 -66 -41 -66 -29 66 -28 66 -54 0 c-43 0 -58 5 -77 25 -23 22 -25
32 -25 115 0 96 9 127 40 138 10 4 99 6 197 4 166 -2 179 -4 196 -23z m446
-213 c19 -17 21 -30 21 -123 0 -128 -10 -143 -94 -143 l-54 0 -43 -67 -42 -68
-20 45 c-10 25 -23 55 -28 68 -7 19 -16 22 -64 22 -85 0 -95 15 -95 143 0 149
-3 147 231 144 148 -2 169 -4 188 -21z m-899 -16 c17 -17 20 -33 20 -120 0
-124 -11 -140 -95 -140 l-55 0 -42 -67 -42 -66 -30 64 -31 64 -57 3 c-83 4
-98 26 -98 142 0 73 3 92 21 114 l20 26 185 0 c171 0 185 -1 204 -20z m-916
-12 c12 -17 16 -48 16 -122 0 -125 -8 -136 -91 -136 l-58 0 -38 -65 c-21 -35
-40 -65 -43 -65 -3 0 -17 28 -32 63 l-26 62 -58 3 c-88 5 -94 14 -94 140 0
149 -12 142 221 142 183 0 188 -1 203 -22z"/>
<path d="M1485 5773 c4 -10 27 -72 51 -138 25 -66 65 -172 89 -235 53 -139
220 -587 282 -759 25 -68 53 -143 64 -167 l18 -44 1849 0 1850 0 180 483 c203
542 322 864 322 872 0 3 -1060 5 -2356 5 -2240 0 -2356 -1 -2349 -17z m882
-108 c26 -18 35 -51 17 -66 -36 -29 -104 30 -74 66 16 19 30 19 57 0z m133
-11 c7 -7 10 -23 8 -36 -5 -36 -57 -32 -78 5 -14 26 -14 29 3 42 20 14 51 10
67 -11z m115 1 c29 -28 31 -38 10 -55 -37 -30 -105 29 -75 65 18 21 37 19 65
-10z m290 -185 c0 -13 -37 -15 -265 -17 -255 -2 -300 2 -284 28 3 5 123 8 277
7 234 -3 272 -5 272 -18z m250 0 c0 -24 -89 -21 -93 3 -3 16 3 18 45 15 35 -2
48 -7 48 -18z m773 10 c6 0 12 -4 12 -10 0 -6 -118 -10 -335 -10 -301 0 -348
3 -330 22 3 3 149 4 323 2 174 -2 323 -4 330 -4z m908 -1 c3 -6 0 -15 -7 -20
-8 -5 -174 -8 -369 -6 -329 2 -355 3 -358 20 -3 16 19 17 362 17 257 0 367 -3
372 -11z m-1928 -104 c1 -6 -59 -11 -160 -13 -166 -3 -228 2 -228 18 0 13 384
8 388 -5z m262 0 c0 -11 -12 -15 -50 -15 -38 0 -50 4 -50 15 0 11 12 15 50 15
38 0 50 -4 50 -15z m1713 0 c2 -10 -975 -20 -1001 -10 -7 3 -10 9 -7 15 9 14
1004 9 1008 -5z m440 0 c-4 -12 -293 -19 -293 -7 0 5 3 12 7 16 11 11 288 2
286 -9z m-2385 -92 c3 -10 -54 -13 -262 -13 -231 0 -266 2 -266 15 0 13 33 15
262 13 198 -2 262 -6 266 -15z m242 2 c0 -11 -12 -15 -45 -15 -33 0 -45 4 -45
15 0 11 12 15 45 15 33 0 45 -4 45 -15z m2123 0 c2 -10 -1265 -20 -1291 -10
-7 3 -10 9 -7 15 9 14 1294 9 1298 -5z m-2345 -92 c3 -10 -47 -13 -227 -13
-200 0 -231 2 -231 15 0 13 29 15 227 13 170 -2 227 -6 231 -15z m232 2 c0
-11 -12 -15 -45 -15 -33 0 -45 4 -45 15 0 11 12 15 45 15 33 0 45 -4 45 -15z
m573 0 c1 -6 -25 -11 -60 -13 -58 -3 -74 4 -56 22 11 10 113 3 116 -9z m1515
3 c-4 -10 -162 -14 -736 -16 -403 -1 -732 2 -732 6 0 5 3 12 7 15 3 4 334 7
736 7 578 0 728 -3 725 -12z m-2318 -93 c0 -6 -66 -11 -172 -13 -188 -3 -318
4 -318 19 0 6 98 8 245 7 155 -2 245 -7 245 -13z m240 -1 c0 -12 -9 -14 -42
-12 -59 4 -63 28 -4 28 35 0 46 -4 46 -16z m658 4 c-4 -10 -68 -13 -278 -13
-210 0 -274 3 -277 13 -4 9 56 12 277 12 221 0 281 -3 278 -12z m820 0 c-4
-10 -76 -14 -309 -16 -167 -1 -310 0 -317 3 -7 3 -10 9 -7 15 10 16 638 14
633 -2z m-1693 -83 c0 -6 -61 -11 -157 -13 -137 -2 -158 0 -158 13 0 13 21 15
158 13 96 -2 157 -7 157 -13z m225 0 c0 -11 -11 -15 -40 -15 -29 0 -40 4 -40
15 0 11 11 15 40 15 29 0 40 -4 40 -15z m1270 0 c0 -13 -71 -15 -579 -15 -319
0 -582 4 -585 9 -3 4 -3 11 1 15 3 3 267 6 585 6 507 0 578 -2 578 -15z m259
1 c-7 -7 -129 -10 -136 -3 -3 4 27 7 67 7 40 0 71 -2 69 -4z m-1741 -83 c3
-10 -50 -13 -242 -13 -223 0 -268 4 -249 24 4 3 115 5 247 4 181 -2 240 -6
244 -15z m220 0 c2 -9 -9 -13 -37 -13 -39 0 -50 8 -34 24 11 11 66 2 71 -11z
m432 2 c0 -13 -24 -15 -159 -15 -145 0 -182 5 -164 24 3 3 78 6 165 6 134 0
158 -2 158 -15z m1185 0 c0 -7 -188 -11 -537 -13 -475 -2 -538 0 -538 13 0 13
63 15 538 13 349 -2 537 -6 537 -13z m254 5 c33 0 0 -10 -52 -16 -37 -4 -57
-3 -57 4 0 12 45 21 75 16 11 -2 26 -4 34 -4z m-2079 -85 c0 -13 -26 -15 -197
-13 -146 2 -197 6 -201 16 -3 9 41 12 197 12 173 0 201 -2 201 -15z m220 -1
c0 -11 -9 -14 -37 -12 -52 4 -56 28 -4 28 30 0 41 -4 41 -16z m210 6 c0 -5
-25 -10 -56 -10 -34 0 -53 4 -49 10 3 6 28 10 56 10 27 0 49 -4 49 -10z m1258
-2 c-4 -10 -126 -13 -568 -13 -442 0 -564 3 -567 13 -4 9 114 12 567 12 453 0
571 -3 568 -12z m-1685 -66 c9 -2 17 -8 17 -13 0 -5 -90 -9 -200 -9 -185 0
-213 4 -192 24 7 8 341 6 375 -2z m2135 0 c6 -1 12 -6 12 -12 0 -7 -143 -10
-410 -10 -245 0 -410 4 -410 9 0 5 8 11 17 13 17 3 766 3 791 0z m-1908 -12
c0 -5 -18 -10 -40 -10 -22 0 -40 5 -40 10 0 6 18 10 40 10 22 0 40 -4 40 -10z
m945 0 c-4 -6 -60 -10 -136 -10 -79 0 -129 4 -129 10 0 6 52 10 136 10 87 0
133 -4 129 -10z m-1145 -69 c0 -11 -173 -18 -327 -13 -57 2 -103 8 -103 13 0
5 89 9 215 9 127 0 215 -4 215 -9z m210 -4 c0 -8 -9 -13 -22 -11 -13 1 -31 3
-40 3 -37 2 -16 21 22 21 27 0 40 -4 40 -13z m355 3 c4 -6 -17 -10 -54 -10
-34 0 -61 4 -61 10 0 6 24 10 54 10 30 0 58 -4 61 -10z m1535 0 c0 -12 -229
-16 -902 -12 -344 1 -538 6 -538 12 0 7 255 10 720 10 462 0 720 -3 720 -10z
m-2095 -70 c4 -6 -43 -10 -134 -10 -87 0 -141 4 -141 10 0 6 51 10 134 10 79
0 137 -4 141 -10z m213 -2 c-4 -10 -26 -13 -68 -9 -5 1 -10 6 -10 11 0 6 18
10 41 10 27 0 39 -4 37 -12z m1022 2 c0 -9 -894 -20 -920 -12 -6 2 -8 8 -4 13
7 13 924 12 924 -1z m185 0 c4 -6 -12 -10 -39 -10 -25 0 -46 5 -46 10 0 6 18
10 39 10 22 0 43 -4 46 -10z m-1395 -70 c0 -6 -83 -10 -230 -10 -147 0 -230 4
-230 10 0 6 83 10 230 10 147 0 230 -4 230 -10z m200 0 c0 -5 -18 -10 -40 -10
-22 0 -40 5 -40 10 0 6 18 10 40 10 22 0 40 -4 40 -10z m1490 0 c0 -7 -240
-10 -700 -10 -460 0 -700 3 -700 10 0 7 240 10 700 10 460 0 700 -3 700 -10z"/>
<path d="M6880 3920 c0 -5 7 -7 15 -4 8 4 15 8 15 10 0 2 -7 4 -15 4 -8 0 -15
-4 -15 -10z"/>
<path d="M4675 3950 c3 -5 10 -10 16 -10 5 0 9 5 9 10 0 6 -7 10 -16 10 -8 0
-12 -4 -9 -10z"/>
<path d="M4680 3864 c0 -14 4 -23 10 -19 6 3 10 15 10 26 0 10 -4 19 -10 19
-5 0 -10 -12 -10 -26z"/>
<path d="M5100 3720 c0 -5 21 -10 46 -10 27 0 43 4 39 10 -3 6 -24 10 -46 10
-21 0 -39 -4 -39 -10z"/>
<path d="M5101 3676 c8 -8 78 -10 85 -3 4 4 -14 7 -41 7 -27 0 -46 -2 -44 -4z"/>
<path d="M4135 3730 c-3 -11 -11 -20 -18 -20 -8 0 -8 -3 1 -12 7 -7 12 -29 12
-50 0 -21 5 -38 10 -38 6 0 10 18 10 40 0 29 4 40 15 40 8 0 15 5 15 10 0 6
-7 10 -15 10 -8 0 -15 5 -15 10 0 6 7 10 15 10 8 0 15 5 15 10 0 19 -39 10
-45 -10z"/>
<path d="M4212 3704 c-43 -30 -21 -94 32 -94 22 0 46 28 46 55 0 20 -32 55
-50 55 -3 0 -16 -7 -28 -16z m53 -44 c0 -18 -6 -26 -23 -28 -27 -4 -40 22 -22
44 19 22 45 13 45 -16z"/>
<path d="M4320 3659 c0 -27 5 -49 10 -49 6 0 10 16 10 35 0 22 6 38 15 41 23
9 18 22 -10 22 -23 0 -25 -4 -25 -49z"/>
<path d="M3258 3733 c0 -5 -2 -36 -3 -70 -1 -43 3 -63 11 -63 7 0 12 24 13 70
1 42 -3 70 -9 70 -5 0 -11 -3 -12 -7z"/>
<path d="M3142 3688 c-33 -33 6 -96 53 -84 34 9 32 21 -5 21 -43 0 -41 19 3
23 55 5 44 52 -13 52 -14 0 -31 -5 -38 -12z m68 -23 c0 -3 -14 -5 -31 -5 -27
0 -30 2 -19 15 9 11 17 12 31 4 10 -5 19 -12 19 -14z"/>
<path d="M3309 3684 c-11 -14 -10 -18 6 -30 10 -8 25 -14 32 -14 7 0 13 -5 13
-11 0 -7 -10 -9 -25 -7 -14 3 -28 1 -31 -3 -8 -14 23 -22 52 -15 33 9 30 48
-4 56 -29 6 -25 26 6 22 12 -1 22 2 22 8 0 16 -56 12 -71 -6z"/>
<path d="M3412 3688 c-34 -34 6 -96 54 -84 30 8 25 20 -9 21 -38 0 -34 20 6
23 41 4 42 5 27 33 -12 22 -59 26 -78 7z m58 -13 c11 -13 8 -15 -20 -15 -28 0
-31 2 -20 15 7 8 16 15 20 15 4 0 13 -7 20 -15z"/>
<path d="M1145 4546 c-13 -13 -27 -35 -30 -48 -9 -35 -80 -32 -125 5 -38 32
-82 35 -126 8 -31 -19 -74 -91 -74 -125 0 -13 -4 -15 -19 -6 -11 5 -35 10 -53
10 -59 0 -118 -78 -118 -155 0 -32 -1 -33 -28 -23 -21 8 -35 8 -57 -3 -68 -34
-92 -117 -55 -194 l22 -46 -21 -23 c-29 -31 -36 -75 -17 -119 14 -34 14 -40
-6 -83 -17 -40 -19 -53 -9 -84 6 -21 17 -43 25 -49 12 -10 12 -16 0 -39 -18
-35 -18 -62 2 -90 18 -26 41 -28 64 -7 16 14 19 12 42 -22 70 -106 194 -198
317 -237 164 -51 314 -40 469 34 142 68 271 217 313 360 7 25 24 60 36 79 29
42 30 98 4 150 l-20 38 29 28 c63 61 88 199 51 280 -19 44 -72 94 -99 96 -25
2 -25 2 -49 -6 -18 -5 -23 -2 -23 12 0 26 -35 79 -65 99 -35 23 -89 20 -126
-6 l-29 -21 0 31 c0 59 -33 100 -80 100 -10 0 -21 9 -25 20 -8 25 -52 60 -77
60 -10 0 -30 -11 -43 -24z m507 -921 c-2 -14 -6 -25 -8 -25 -2 0 -4 11 -4 25
0 14 4 25 9 25 4 0 6 -11 3 -25z m-1012 -138 c116 -139 260 -207 436 -207 169
0 315 69 424 201 36 43 50 54 54 42 4 -10 15 -14 31 -11 l24 5 -17 -31 c-9
-17 -51 -66 -93 -109 -63 -63 -92 -84 -160 -116 -46 -21 -105 -43 -131 -50
-66 -16 -213 -14 -283 4 -134 34 -277 130 -344 232 -32 47 -39 69 -20 58 6 -4
13 2 16 14 3 12 8 21 12 21 4 0 27 -24 51 -53z"/>
<path d="M6174 4400 c-145 -29 -267 -150 -293 -292 -55 -301 298 -524 574
-363 134 79 204 251 161 397 l-16 55 -77 -18 c-43 -10 -88 -19 -100 -19 -27 0
-27 -1 -12 -34 17 -37 -3 -79 -49 -101 -45 -21 -162 -33 -162 -16 0 6 7 11 15
11 9 0 27 11 41 25 24 24 25 28 11 48 -9 14 -28 24 -53 27 -51 7 -57 33 -12
56 18 9 35 18 37 20 2 2 -13 18 -33 37 -49 47 -47 70 14 129 48 46 49 48 22
47 -15 -1 -45 -5 -68 -9z"/>
<path d="M2648 4006 c-27 -20 -38 -61 -39 -144 0 -61 -3 -72 -11 -56 -5 12
-21 27 -34 33 -33 15 -345 15 -377 0 -37 -17 -47 -50 -47 -153 0 -122 14 -144
98 -148 l56 -3 32 -65 c17 -36 34 -64 39 -63 4 1 26 30 48 65 l42 63 57 3 c84
4 98 25 99 151 0 64 3 89 9 75 14 -35 50 -54 103 -54 l48 0 32 -72 33 -72 44
71 44 71 60 4 c87 7 96 21 96 157 0 155 6 151 -231 151 -135 -1 -189 -4 -201
-14z m402 -16 c17 -17 20 -33 20 -123 0 -126 -9 -138 -98 -145 l-58 -4 -34
-59 c-19 -32 -37 -59 -40 -59 -4 0 -18 26 -32 59 l-25 58 -57 5 c-87 7 -96 20
-96 145 0 148 -8 143 220 143 167 0 181 -1 200 -20z m-503 -161 c44 -14 53
-39 53 -143 0 -69 -4 -88 -21 -110 -18 -23 -28 -26 -77 -26 l-57 0 -41 -66
-41 -66 -29 66 -28 66 -57 0 c-50 0 -60 3 -78 26 -17 22 -21 41 -21 110 0 91
11 127 44 142 30 14 312 15 353 1z"/>
<path d="M2780 3865 c0 -82 1 -85 23 -84 12 0 16 3 10 6 -17 6 -17 135 -1 151
9 9 7 12 -10 12 -21 0 -22 -4 -22 -85z"/>
<path d="M2888 3943 c16 -6 16 -135 0 -151 -9 -9 -7 -12 10 -12 21 0 22 4 22
85 0 82 -1 85 -22 84 -13 0 -17 -3 -10 -6z"/>
<path d="M2336 3761 c-4 -5 -2 -12 3 -15 5 -4 12 -2 15 3 4 5 2 12 -3 15 -5 4
-12 2 -15 -3z"/>
<path d="M2395 3738 c-9 -26 -6 -98 4 -113 3 -5 8 10 11 35 3 29 10 44 18 43
19 -4 14 14 -5 22 -16 6 -15 8 7 20 l25 14 -26 1 c-19 0 -29 -7 -34 -22z"/>
<path d="M2340 3669 c0 -31 4 -48 10 -44 6 3 10 26 10 51 0 24 -4 44 -10 44
-5 0 -10 -23 -10 -51z"/>
<path d="M3713 3963 c-7 -3 -13 -20 -13 -38 0 -18 -6 -36 -12 -39 -10 -5 -10
-7 0 -12 6 -3 12 -21 12 -39 0 -21 6 -35 16 -39 21 -8 33 2 15 13 -17 11 -18
130 -1 141 14 9 0 19 -17 13z"/>
<path d="M3800 3961 c0 -6 5 -13 10 -16 14 -9 13 -118 -2 -133 -6 -6 -8 -15
-5 -19 4 -4 15 0 23 9 20 19 22 131 4 153 -14 17 -30 20 -30 6z"/>
<path d="M5860 3832 c0 -12 19 -26 26 -19 2 2 -2 10 -11 17 -9 8 -15 8 -15 2z"/>
<path d="M5948 3737 c31 -33 104 -72 176 -92 46 -13 83 -16 155 -12 89 4 191
31 191 48 0 4 -26 -2 -57 -14 -45 -17 -81 -22 -158 -22 -117 0 -172 16 -267
77 -47 30 -57 34 -40 15z"/>
<path d="M2173 3353 l-33 -4 0 -719 0 -719 158 -3 157 -3 3 -202 2 -202 -34
-63 c-35 -65 -92 -225 -83 -234 3 -3 17 32 32 78 15 46 42 111 61 146 l34 63
0 302 c0 166 -5 321 -10 344 -6 24 -15 74 -20 113 -9 65 -8 73 10 92 11 12 20
25 20 30 0 13 -18 9 -24 -4 -10 -21 4 104 17 152 16 58 84 150 112 150 12 0
39 21 66 52 43 49 48 52 72 41 21 -10 26 -9 31 3 10 27 7 31 -21 26 -26 -4
-27 -3 -11 13 11 12 24 16 42 11 36 -9 34 -46 -4 -102 -36 -54 -70 -181 -57
-215 5 -13 10 -33 12 -44 6 -39 30 -85 46 -90 13 -5 15 -13 8 -48 -11 -59 -10
-66 5 -37 8 13 17 70 21 125 11 174 25 257 62 360 33 95 72 174 73 148 0 -25
58 -15 76 12 22 34 8 47 -16 15 -14 -19 -22 -22 -39 -14 l-21 9 20 33 c23 37
57 43 83 14 22 -24 21 -57 -4 -112 -11 -25 -29 -92 -39 -150 -16 -88 -18 -132
-13 -272 5 -135 9 -168 20 -168 10 0 12 -6 8 -20 -3 -11 -2 -20 4 -20 5 0 12
26 15 58 4 31 11 93 16 137 6 44 10 94 10 110 0 17 14 83 32 147 35 125 42
133 99 121 24 -5 29 -2 29 15 0 17 -5 19 -45 14 -41 -4 -45 -3 -39 14 17 53
27 64 60 64 68 0 74 -42 42 -290 -7 -57 -8 -170 -3 -340 4 -140 8 -290 9 -332
1 -93 16 -77 18 19 0 45 10 99 29 158 16 50 36 116 44 147 19 72 63 125 112
134 48 9 60 -5 44 -53 -7 -21 -16 -94 -21 -163 -19 -290 -129 -534 -347 -769
-62 -66 -123 -142 -136 -168 -38 -76 -120 -293 -114 -300 4 -3 9 3 13 13 25
72 96 249 114 285 12 23 73 97 136 164 90 98 127 147 184 246 39 68 80 150 92
181 l21 58 360 -2 360 -3 12 -40 c26 -88 87 -161 259 -304 78 -65 146 -124
152 -132 7 -8 44 -117 84 -244 63 -200 90 -272 90 -241 0 19 -153 482 -164
495 -6 8 -76 68 -154 134 -138 115 -205 186 -239 250 -8 16 -24 84 -34 149
-11 66 -28 145 -39 176 -25 70 -25 84 0 107 11 10 17 21 14 26 -2 4 -2 20 2
35 6 24 10 26 45 20 31 -5 42 -2 58 15 16 17 18 26 9 45 -15 32 -31 19 -22
-18 6 -31 6 -31 -31 -25 -48 8 -50 10 -39 48 13 44 33 55 70 38 42 -21 59 -62
59 -149 0 -56 6 -87 23 -122 26 -54 28 -93 7 -102 -22 -8 -18 -26 5 -26 24 0
34 21 55 113 19 88 17 96 -119 367 -132 265 -169 360 -170 429 -1 64 15 81 60
62 22 -9 46 -42 96 -129 58 -102 284 -421 298 -421 8 0 88 103 96 122 4 12 2
16 -7 12 -11 -4 -14 18 -12 122 1 82 -1 122 -7 113 -5 -8 -10 -23 -10 -34 0
-31 -27 -1 -34 39 -4 19 -11 35 -15 35 -11 0 -22 -53 -12 -60 4 -3 17 -20 30
-38 31 -45 22 -62 -32 -62 -81 0 -100 58 -45 138 44 65 53 72 92 79 25 4 48
-2 88 -22 97 -49 109 -63 124 -151 8 -44 17 -117 20 -164 7 -111 11 -127 30
-134 24 -9 28 -1 11 26 -9 14 -17 63 -21 123 -3 55 -13 127 -21 160 -20 83
-20 82 22 77 40 -5 64 -18 126 -66 l37 -30 -3 -173 c-3 -137 -1 -175 9 -184
13 -10 18 -6 15 13 0 3 6 28 14 55 12 38 12 50 2 58 -8 7 -11 32 -9 76 2 37
-1 84 -7 105 -6 21 -9 39 -7 41 1 2 17 0 35 -3 25 -5 38 -18 61 -58 36 -61 36
-63 9 -71 -24 -8 -14 -25 17 -29 23 -4 24 -46 6 -205 -7 -58 -12 -238 -12
-414 l0 -311 62 -219 c34 -120 64 -214 66 -208 2 6 -24 108 -58 227 l-62 217
4 121 3 121 210 5 210 5 -1 48 -1 47 21 -19 c12 -11 34 -24 49 -30 38 -15 497
-15 497 -1 0 6 -6 10 -12 9 -7 -1 -120 -1 -251 0 l-239 1 -29 29 -29 29 0 595
0 594 24 26 c13 14 35 29 48 32 12 3 334 4 715 3 380 -2 686 0 680 4 -7 4
-326 8 -709 8 l-696 0 -30 -25 c-17 -14 -32 -25 -34 -25 -2 0 -4 23 -4 52 0
47 -3 53 -25 59 -25 7 -3289 9 -3346 2z m357 -183 l0 -80 -155 0 -155 0 0 80
0 80 155 0 155 0 0 -80z m220 -10 l0 -80 -85 0 -85 0 0 80 0 80 85 0 85 0 0
-80z m220 0 l0 -80 -80 0 -80 0 0 80 0 80 80 0 80 0 0 -80z m230 0 l0 -80 -85
0 -85 0 0 80 0 80 85 0 85 0 0 -80z m221 76 c2 -2 3 -38 1 -80 l-4 -76 -79 0
-79 0 0 80 0 80 78 0 c43 0 81 -2 83 -4z m229 -76 l0 -80 -85 0 -85 0 0 80 0
80 85 0 85 0 0 -80z m230 0 l0 -80 -85 0 -85 0 0 80 0 80 85 0 85 0 0 -80z
m220 0 l0 -80 -79 0 -79 0 -4 76 c-2 42 -1 78 1 80 2 2 40 4 83 4 l78 0 0 -80z
m230 0 l0 -80 -85 0 -85 0 0 80 0 80 85 0 85 0 0 -80z m220 0 l0 -80 -80 0
-80 0 0 80 0 80 80 0 80 0 0 -80z m230 0 l0 -80 -85 0 -85 0 0 80 0 80 85 0
85 0 0 -80z m222 70 c2 -5 2 -41 0 -80 l-4 -70 -79 0 -79 0 0 80 0 80 79 0
c44 0 81 -4 83 -10z m228 -70 l0 -80 -85 0 -85 0 0 80 0 80 85 0 85 0 0 -80z
m230 0 l0 -80 -85 0 -85 0 0 80 0 80 85 0 85 0 0 -80z m-2406 -121 c30 -35 32
-66 12 -154 -8 -33 -13 -62 -11 -64 3 -2 14 18 25 45 12 26 26 54 32 62 6 7
12 34 12 60 l1 47 83 3 82 3 0 -86 c0 -95 -14 -111 -43 -51 -12 27 -24 36 -52
42 -47 8 -81 -15 -94 -63 -6 -21 -26 -94 -45 -163 -19 -69 -40 -174 -46 -235
-7 -60 -14 -112 -16 -114 -2 -2 -4 56 -4 130 0 147 20 288 50 361 11 26 20 62
20 80 -1 69 -64 106 -114 67 -60 -47 -160 -301 -171 -434 -9 -111 -16 -179
-20 -183 -2 -2 -13 27 -25 64 -22 66 -22 68 -6 138 10 39 27 81 38 93 28 30
48 94 37 115 -7 14 -6 18 6 18 8 0 15 4 15 9 0 5 3 16 6 25 5 13 -1 16 -31 16
-33 0 -35 -1 -21 -16 18 -17 21 -28 6 -19 -5 3 -22 7 -37 9 -24 3 -36 -6 -93
-75 -43 -52 -71 -79 -85 -79 -13 0 -35 -18 -59 -50 -21 -27 -41 -48 -45 -46
-4 3 -7 -3 -8 -12 -1 -9 -8 -42 -17 -72 -19 -68 -25 -147 -16 -222 l6 -58
-103 0 -103 0 0 80 0 80 95 0 c94 0 95 0 95 25 0 24 -2 24 -92 27 l-93 3 -3
83 -3 82 115 0 116 0 19 38 c10 20 28 46 40 56 16 14 21 31 21 68 l0 48 65 0
c54 0 66 3 75 20 6 11 18 20 28 21 12 0 11 3 -6 9 -21 9 -23 14 -20 87 l3 78
80 0 80 0 5 -73 5 -72 18 45 c11 25 23 45 28 45 5 0 9 14 9 30 0 23 5 30 19
30 10 0 32 7 47 15 42 22 59 19 88 -16z m1160 -19 c34 -31 35 -31 38 -8 3 22
7 23 83 23 l80 0 0 -80 0 -80 -47 -3 -48 -3 16 -25 c13 -18 25 -24 54 -24 l37
0 -1 -44 c-1 -48 23 -86 56 -86 10 0 18 -7 18 -15 0 -10 -10 -15 -30 -15 -28
0 -29 -1 -18 -25 9 -21 18 -25 55 -25 l43 0 0 -48 c0 -26 -5 -53 -11 -59 -13
-13 -20 -6 -128 137 -39 52 -74 100 -78 105 -30 40 -87 134 -117 192 -19 39
-48 80 -63 92 l-28 20 27 1 c16 0 41 -12 62 -30z m-1829 -65 l0 -80 -80 0 -80
0 -3 69 c-4 99 -5 97 85 94 l78 -3 0 -80z m225 0 l0 -85 -80 0 -80 0 0 85 0
85 80 0 80 0 0 -85z m900 0 l0 -85 -80 0 -80 0 0 78 c0 43 3 82 7 85 3 4 39 7
80 7 l73 0 0 -85z m230 0 l0 -86 -82 3 -83 3 0 75 c0 41 1 78 3 83 2 4 39 7
83 7 l79 0 0 -85z m225 0 l0 -80 -80 0 -80 0 -3 69 c-4 99 -5 97 85 94 l78 -3
0 -80z m115 75 c0 -5 -4 -10 -9 -10 -5 0 -14 -14 -21 -31 -10 -23 -10 -39 -1
-68 14 -49 14 -51 -4 -51 -12 0 -15 16 -15 85 0 84 0 85 25 85 14 0 25 -4 25
-10z m560 -38 l0 -48 -54 0 c-44 1 -59 -4 -80 -23 l-26 -24 0 65 c0 35 3 68 7
71 3 4 39 7 80 7 l73 0 0 -48z m230 -37 l0 -85 -63 0 c-91 0 -107 14 -107 94
0 34 3 66 7 69 3 4 42 7 85 7 l78 0 0 -85z m220 0 l0 -85 -80 0 -80 0 0 85 0
85 80 0 80 0 0 -85z m370 -5 l0 -80 -150 0 -150 0 0 80 0 80 150 0 150 0 0
-80z m-2139 -130 l49 0 0 -80 0 -80 -61 0 -62 0 7 61 c3 34 7 80 7 103 1 23 4
31 6 19 4 -20 11 -23 54 -23z m-851 -80 l0 -80 -125 0 -125 0 0 80 0 80 125 0
125 0 0 -80z m1130 0 l0 -80 -85 0 -85 0 0 80 0 80 85 0 85 0 0 -80z m221 76
c2 -2 3 -38 1 -80 l-4 -76 -79 0 -79 0 0 80 0 80 78 0 c43 0 81 -2 83 -4z
m229 -76 l0 -80 -85 0 -85 0 0 73 c0 41 3 77 7 80 3 4 42 7 85 7 l78 0 0 -80z
m900 70 c0 -5 -4 -10 -9 -10 -6 0 -13 5 -16 10 -3 6 1 10 9 10 9 0 16 -4 16
-10z m230 -70 l0 -80 -28 0 c-22 0 -34 9 -53 38 -13 20 -39 44 -56 52 -25 12
-33 21 -33 43 l0 27 85 0 85 0 0 -80z m278 -107 l-3 -188 -82 -3 -83 -3 0 111
0 110 -25 0 c-25 0 -25 1 -25 80 l0 80 110 0 110 0 -2 -187z m-1323 64 c15
-36 14 -37 -5 -37 -17 0 -20 7 -20 42 0 47 3 47 25 -5z m445 -23 c0 -8 -4 -14
-10 -14 -5 0 -10 9 -10 21 0 11 5 17 10 14 6 -3 10 -13 10 -21z m-1158 -139
c2 -42 2 -80 0 -85 -2 -6 -39 -10 -83 -10 l-79 0 0 78 c0 43 3 82 7 85 3 4 39
7 79 7 l72 0 4 -75z m226 -13 l3 -83 -83 3 -83 3 -3 69 c-4 99 -5 97 85 94
l78 -3 3 -83z m227 3 l0 -80 -82 -3 -83 -3 0 79 c0 43 3 82 7 86 4 4 41 5 83
4 l75 -3 0 -80z m225 0 l0 -85 -78 0 c-43 0 -81 2 -83 4 -2 2 -3 41 -1 85 l4
81 79 0 79 0 0 -85z m1128 -2 l3 -83 -38 0 -38 0 -1 85 0 86 35 -3 36 -3 3
-82z m-1007 -4 c32 -64 37 -80 22 -74 -10 4 -31 10 -48 14 -29 7 -30 8 -33 74
-2 41 1 67 7 67 6 0 29 -37 52 -81z m-897 -146 c-4 -10 -17 -46 -28 -80 -17
-52 -25 -63 -43 -63 -22 0 -23 4 -23 80 l0 80 51 0 c45 0 50 -2 43 -17z m226
-63 l0 -80 -40 0 c-37 0 -40 2 -40 28 0 16 7 52 15 80 14 44 19 52 40 52 24 0
25 -2 25 -80z m230 0 l0 -80 -85 0 -85 0 0 73 c0 41 3 77 7 80 3 4 42 7 85 7
l78 0 0 -80z m220 0 l0 -80 -80 0 -80 0 0 80 0 80 80 0 80 0 0 -80z m109 58
c0 -13 -8 -43 -19 -68 -18 -44 -18 -45 -21 -15 -2 17 -2 47 0 68 2 28 7 37 22
37 13 0 19 -7 18 -22z m1349 -60 l3 -78 -166 0 -165 0 0 49 c0 27 3 63 6 80
l7 31 156 -2 156 -3 3 -77z m-1129 -14 c12 -30 21 -57 21 -59 0 -3 -13 -5 -30
-5 l-30 0 0 66 c0 76 10 76 39 -2z m-1939 -204 l0 -80 -85 0 -85 0 0 80 0 80
85 0 85 0 0 -80z m869 68 c0 -7 -4 -22 -9 -33 -7 -17 -9 -15 -9 13 -1 17 4 32
9 32 6 0 10 -6 9 -12z m835 -40 c8 -29 18 -65 22 -80 l6 -28 -341 0 c-188 0
-341 4 -341 9 0 5 7 28 15 51 8 23 15 55 15 71 l0 29 305 0 304 0 15 -52z
m245 40 c0 -7 -4 -22 -9 -33 -7 -16 -9 -17 -9 -3 -1 9 -4 23 -7 32 -4 11 -1
16 10 16 9 0 16 -6 15 -12z m881 -68 l0 -80 -45 0 -45 0 0 80 0 80 45 0 45 0
0 -80z m240 0 l0 -80 -85 0 -85 0 0 80 0 80 85 0 85 0 0 -80z m-3013 -32 c-3
-8 -6 -5 -6 6 -1 11 2 17 5 13 3 -3 4 -12 1 -19z"/>
<path d="M6187 3150 c-186 -47 -276 -216 -264 -500 12 -271 113 -487 262 -556
63 -30 117 -30 180 0 212 99 335 527 238 831 -29 90 -106 180 -182 213 -43 18
-181 25 -234 12z m94 -55 c4 -22 3 -44 -2 -50 -16 -17 -10 -99 11 -140 12 -23
20 -59 20 -86 l0 -46 -77 -7 c-43 -4 -127 -18 -186 -32 -60 -15 -111 -23 -114
-20 -12 12 25 194 49 247 36 78 74 118 143 151 44 21 72 28 105 26 44 -3 45
-4 51 -43z m145 10 c102 -50 163 -160 180 -323 l6 -71 -48 18 c-27 11 -93 25
-147 32 l-99 13 6 60 c3 34 8 80 11 103 6 33 2 53 -14 87 -12 24 -25 61 -28
82 l-6 37 42 -6 c23 -3 67 -17 97 -32z m-112 -87 c9 -36 7 -118 -3 -118 -10 0
-15 13 -26 67 -11 56 15 101 29 51z m80 -269 c44 -5 111 -20 149 -35 l70 -27
-7 -81 c-24 -321 -202 -563 -377 -516 -155 42 -268 243 -295 527 l-6 72 53 15
c66 20 199 44 259 48 25 2 52 4 60 4 8 1 51 -2 94 -7z"/>
<path d="M6501 2684 c0 -11 3 -14 6 -6 3 7 2 16 -1 19 -3 4 -6 -2 -5 -13z"/>
<path d="M6477 2573 c2 -64 5 -118 7 -120 9 -10 17 100 11 154 -13 101 -20 86
-18 -34z"/>
<path d="M6465 2410 c-3 -5 -1 -10 4 -10 6 0 11 5 11 10 0 6 -2 10 -4 10 -3 0
-8 -4 -11 -10z"/>
<path d="M6440 2336 c-6 -18 -29 -64 -51 -101 -47 -78 -48 -96 -2 -27 39 56
86 162 74 162 -5 0 -14 -15 -21 -34z"/>
<path d="M4106 2957 c-16 -11 -13 -13 22 -13 27 1 38 5 35 14 -7 16 -34 15
-57 -1z"/>
<path d="M1812 2894 c-76 -63 -83 -66 -138 -70 -50 -2 -63 -7 -82 -30 -22 -25
-24 -34 -20 -130 5 -150 2 -148 215 -152 185 -4 204 -1 233 30 17 19 20 35 20
128 0 100 -1 108 -25 130 -22 20 -44 26 -113 29 -9 1 -11 17 -6 66 4 36 4 65
2 65 -3 0 -42 -30 -86 -66z m71 -24 l-6 -60 57 0 c85 0 96 -15 96 -138 0 -148
10 -142 -219 -142 -234 0 -226 -5 -226 140 0 124 11 140 94 140 54 1 59 3 126
60 39 33 73 60 77 60 3 0 4 -27 1 -60z"/>
<path d="M1750 2690 c0 -22 5 -40 10 -40 6 0 10 18 10 40 0 22 -4 40 -10 40
-5 0 -10 -18 -10 -40z"/>
<path d="M1800 2690 c0 -5 18 -10 40 -10 22 0 40 5 40 10 0 6 -18 10 -40 10
-22 0 -40 -4 -40 -10z"/>
<path d="M1800 2648 c0 -5 18 -8 40 -8 22 0 40 4 40 9 0 5 -18 9 -40 8 -22 -1
-40 -5 -40 -9z"/>
<path d="M1750 2614 c0 -8 5 -12 10 -9 6 3 10 10 10 16 0 5 -4 9 -10 9 -5 0
-10 -7 -10 -16z"/>
<path d="M4520 2771 c0 -6 4 -13 10 -16 6 -3 7 1 4 9 -7 18 -14 21 -14 7z"/>
<path d="M4870 2756 c0 -9 7 -12 20 -9 11 3 26 0 34 -6 16 -13 32 2 21 19 -10
16 -75 12 -75 -4z"/>
<path d="M4253 2694 c-18 -9 -33 -20 -33 -24 0 -9 100 23 100 33 0 12 -33 8
-67 -9z"/>
<path d="M2827 2683 c-14 -13 -6 -23 16 -21 12 1 32 -2 45 -6 27 -9 30 9 3 24
-22 11 -54 13 -64 3z"/>
<path d="M4941 2624 c0 -11 3 -14 6 -6 3 7 2 16 -1 19 -3 4 -6 -2 -5 -13z"/>
<path d="M4851 2614 c0 -11 3 -14 6 -6 3 7 2 16 -1 19 -3 4 -6 -2 -5 -13z"/>
<path d="M2544 2585 c-3 -19 -9 -33 -13 -31 -4 3 -5 -11 -3 -31 3 -21 1 -33
-5 -30 -10 6 5 -113 27 -211 10 -45 9 -59 -5 -94 -21 -54 -13 -60 10 -7 17 37
18 47 5 112 -7 40 -15 95 -18 123 -3 45 -1 54 19 68 13 9 31 16 41 16 10 0 18
5 18 10 0 14 -43 13 -58 -2 -19 -19 -21 -6 -6 37 16 47 18 75 4 75 -5 0 -12
-16 -16 -35z"/>
<path d="M3056 2601 c-3 -5 15 -11 42 -13 51 -5 65 -2 57 13 -8 12 -92 12 -99
0z"/>
<path d="M4941 2464 c0 -11 3 -14 6 -6 3 7 2 16 -1 19 -3 4 -6 -2 -5 -13z"/>
<path d="M4784 2433 c4 -16 10 -62 13 -103 4 -51 8 -69 14 -55 13 34 10 125
-6 155 -19 38 -29 39 -21 3z"/>
<path d="M3417 2399 c-11 -6 -26 -27 -34 -47 -14 -33 -13 -37 3 -49 21 -15 44
-17 44 -3 0 5 -8 13 -17 18 -16 9 -16 12 1 36 9 15 24 30 32 33 17 6 19 23 2
23 -7 0 -21 -5 -31 -11z"/>
<path d="M4948 2327 c-3 -23 -3 -44 -1 -47 8 -9 23 25 23 52 0 45 -18 41 -22
-5z"/>
<path d="M4510 2308 c0 -15 24 -58 32 -58 8 0 1 17 -22 50 -5 8 -10 12 -10 8z"/>
<path d="M5060 2289 c0 -11 5 -17 10 -14 6 3 10 13 10 21 0 8 -4 14 -10 14 -5
0 -10 -9 -10 -21z"/>
<path d="M2841 2218 c-10 -69 -11 -108 -1 -132 15 -40 22 -28 9 17 -12 43 1
104 21 99 11 -3 11 0 0 12 -15 19 -26 20 -29 4z"/>
<path d="M2620 2177 c0 -18 7 -42 16 -53 15 -19 16 -19 9 1 -15 42 -17 65 -6
65 7 0 9 5 6 10 -13 20 -25 9 -25 -23z"/>
<path d="M3078 2117 c-9 -29 -14 -54 -12 -56 7 -7 35 71 32 89 -2 11 -10 -4
-20 -33z"/>
<path d="M2480 2088 c1 -7 7 -26 16 -43 12 -26 14 -27 9 -5 -2 14 -5 33 -5 43
0 9 -4 17 -10 17 -5 0 -10 -6 -10 -12z"/>
<path d="M4315 2034 c-13 -5 -7 -74 6 -74 5 0 9 18 9 40 0 22 -1 40 -2 39 -2
0 -8 -3 -13 -5z"/>
<path d="M4851 1964 c0 -11 3 -14 6 -6 3 7 2 16 -1 19 -3 4 -6 -2 -5 -13z"/>
<path d="M3762 1790 c-35 -38 -66 -69 -70 -69 -44 7 -101 -4 -120 -21 -20 -19
-22 -31 -22 -130 0 -161 4 -164 263 -158 199 4 200 5 206 139 5 136 -18 174
-106 170 -49 -1 -55 7 -67 92 -4 26 -10 47 -14 47 -4 -1 -35 -32 -70 -70z
m146 -80 c85 0 92 -11 92 -138 0 -149 12 -142 -221 -142 -229 0 -219 -6 -219
142 0 122 11 138 94 138 l55 0 58 66 58 66 14 -66 14 -66 55 0z"/>
<path d="M3776 1584 c-15 -47 -25 -88 -22 -91 6 -6 16 16 47 106 21 60 23 71
11 71 -4 0 -20 -39 -36 -86z"/>
<path d="M3678 1597 c-16 -6 -28 -16 -28 -22 0 -12 68 -40 77 -31 3 3 -6 10
-21 16 -27 10 -28 30 -1 30 8 0 17 5 20 10 8 12 -11 11 -47 -3z"/>
<path d="M3859 1591 l34 -18 -33 -12 c-18 -6 -31 -14 -27 -17 7 -7 75 14 82
26 7 11 -47 40 -72 40 -12 -1 -6 -7 16 -19z"/>
</g>
</svg>
